<svg xmlns="http://www.w3.org/2000/svg" viewBox="0 0 52 52"><defs><filter id="a" width="147.7%" height="147.7%" x="-23.9%" y="-23.9%" filterUnits="objectBoundingBox"><feOffset dy="1" in="SourceAlpha" result="shadowOffsetOuter1"></feOffset><feGaussianBlur in="shadowOffsetOuter1" result="shadowBlurOuter1" stdDeviation="2"></feGaussianBlur><feColorMatrix in="shadowBlurOuter1" result="shadowMatrixOuter1" values="0 0 0 0 0 0 0 0 0 0 0 0 0 0 0 0 0 0 0.39690778 0"></feColorMatrix><feMerge><feMergeNode in="shadowMatrixOuter1"></feMergeNode><feMergeNode in="SourceGraphic"></feMergeNode></feMerge></filter></defs><g fill="none" fill-rule="evenodd" transform="translate(4 3)"><path fill="#EBEBEB" d="M36.898 18.626h-.156a5.5 5.5 0 0 1-.378.262 14.722 14.722 0 0 1-3.36 1.566 29.453 29.453 0 0 1-4.407 1.045 42.36 42.36 0 0 1-13.264 0c-3.516-.588-6.409-1.61-8.122-2.895a2.439 2.439 0 0 0-1.937.892 3.8 3.8 0 0 0-.756 1.633v5.788c0 .304.022.61.044.892.78 9.4 9.191 16.385 18.805 15.645 8.524-.674 15.29-7.289 16.001-15.645.023-.304.045-.588.045-.892V21.15c-.156-.588-.4-1.154-.757-1.633a2.467 2.467 0 0 0-1.758-.892z"></path><path fill="#900" d="M.334 26.939a5.007 5.007 0 0 1-.312-1.72v1.72c0 3.003 2.493 5.44 5.564 5.44a14.233 14.233 0 0 1-.646-2.154c-2.091-.087-3.894-1.371-4.606-3.286M43.488 26.939a5.064 5.064 0 0 1-4.532 3.286 15.959 15.959 0 0 1-.638 2.154c3.036 0 5.5-2.437 5.5-5.44v-1.72c0 .588-.11 1.175-.33 1.72"></path><path fill="#E60000" d="M.022 20.868c0 .13-.022.24-.022.37v4.004c0 .587.111 1.175.312 1.718.712 1.894 2.515 3.2 4.584 3.286a17.274 17.274 0 0 1-.378-2.393 10.606 10.606 0 0 1-.044-.893c-.015-.304-.015-.463 0-.478v-5.31a4.068 4.068 0 0 1 .756-1.632 2.37 2.37 0 0 1 1.936-.892c1.714 1.262 4.607 2.307 8.123 2.894a42.29 42.29 0 0 0 13.263 0c1.492-.24 2.96-.587 4.385-1.044 1.18-.37 2.314-.914 3.36-1.567.134-.087.267-.174.378-.261h.157c.69.022 1.357.348 1.78.892.378.479.645 1.045.756 1.632V26.982c0 .305-.022.61-.044.892-.067.805-.2 1.61-.378 2.394 2.047-.109 3.85-1.393 4.562-3.264a4.98 4.98 0 0 0 .311-1.698v-2.371c.045-.435.045-.892.045-1.393C43.931 9.618 34.094 0 21.965 0 10.082 0 .356 9.248.022 20.868z"></path><path fill="#FFF" d="M26.439 13.535a4.428 4.428 0 0 1-1.314 1.544 4.99 4.99 0 0 1-4.406.828 5.22 5.22 0 0 1-2.915-2.133 5.66 5.66 0 0 1-.668-1.436c0-.044-.022-.065-.022-.109a3.97 3.97 0 0 1-.156-.87 6.28 6.28 0 0 1-.022-.914v-.087c.022-.435.09-.87.2-1.284.4-1.567 1.313-2.96 2.56-4.004a8.79 8.79 0 0 1 2.492-1.436c.245-.087.512-.174.757-.24l.467-.13a9.748 9.748 0 0 1 1.157-.196 5.093 5.093 0 0 1 1.158 0c.066 0 .133.022.177.044-1.713.37-2.96 1.85-2.96 3.568v.11c.69.13 1.336.369 1.937.717.49.305.934.675 1.268 1.132l.067.109c.245.348.423.74.556 1.153.134.413.2.848.223 1.284v.174c-.022.74-.2 1.5-.556 2.176M21.966 2.219c-5.052 0-9.125 4.004-9.125 8.922 0 4.918 4.095 8.921 9.125 8.921 5.029 0 9.124-4.003 9.124-8.921 0-4.94-4.095-8.922-9.124-8.922"></path><path fill="#4A4D4E" d="M31.519 34.335a.862.862 0 0 0-1.204 0c-4.661 4.614-12.188 4.614-16.827 0a.863.863 0 0 0-1.204 0c-.328.327-.328.849 0 1.197l.045.044c5.317 5.266 13.916 5.244 19.233-.022.307-.349.307-.892-.043-1.219"></path><g fill="#4A4D4E"><path d="M12.129 27.248c.386 1.445 1.885 2.29 3.338 1.934.954-.244 1.725-.978 1.976-1.934a2.693 2.693 0 0 0-1.976-3.269c-1.476-.355-2.975.512-3.338 1.934-.045.223-.09.445-.09.668v.044c0 .223.045.423.09.623M26.415 27.268c.385 1.43 1.88 2.268 3.332 1.915.951-.242 1.722-.969 1.971-1.915.046-.154.069-.308.069-.485v-.175c.022-1.476-1.18-2.686-2.698-2.708-1.518-.022-2.765 1.144-2.788 2.62 0 .263.023.506.114.748"></path></g></g></svg>